<svg width="34" height="48" viewBox="0 0 34 48" fill="none" xmlns="http://www.w3.org/2000/svg">
<path d="M23.7501 46.723C23.8005 46.703 23.851 46.6829 23.9014 46.6628C23.9613 46.6385 24.0212 46.6132 24.08 46.5878C24.1189 46.572 24.1568 46.5561 24.1956 46.5392C24.2881 46.5002 24.3795 46.459 24.471 46.4188C24.4762 46.4167 24.4825 46.4136 24.4878 46.4114C24.6916 46.3196 24.8934 46.2234 25.0931 46.1252C25.0973 46.1231 25.1015 46.121 25.1057 46.1189C25.1992 46.0724 25.2927 46.0249 25.3862 45.9763C25.3968 45.971 25.4062 45.9657 25.4167 45.9604C25.5039 45.915 25.5912 45.8685 25.6773 45.821C25.6889 45.8147 25.7004 45.8083 25.712 45.802C25.7971 45.7555 25.8822 45.708 25.9674 45.6594C25.9779 45.6531 25.9894 45.6467 25.9999 45.6404C26.0861 45.5908 26.1712 45.5411 26.2563 45.4904C26.2648 45.4851 26.2732 45.4799 26.2816 45.4756C26.3698 45.4228 26.4581 45.3689 26.5464 45.314C26.5506 45.3119 26.5537 45.3087 26.5579 45.3066C31.0503 42.5045 34 37.7832 34 32.4302C34 28.838 32.6707 25.5278 30.4387 22.8936C30.3431 22.7859 30.2485 22.6771 30.1539 22.5672C30.1466 22.5598 30.1403 22.5514 30.1329 22.5429C29.0842 21.3209 28.0848 19.9837 27.158 18.543C23.6776 13.1309 21.9468 7.3756 22.0278 2.65851C22.0299 2.61521 22.0309 2.5719 22.0309 2.5286V2.51698C22.0246 1.12488 20.9013 0 19.5152 0C18.1291 0 17.0005 1.13121 17.0005 2.5286C17.0005 2.97749 17.1172 3.39892 17.321 3.76332C17.3242 3.76754 17.3273 3.77177 17.3305 3.77599C17.4356 3.9133 17.5375 4.05484 17.6373 4.20271C17.6426 4.21116 17.6478 4.21855 17.6531 4.227C18.2741 5.15542 18.7912 6.29086 19.1327 7.56255C19.1442 7.60585 19.1558 7.64916 19.1674 7.69352C19.7895 10.1091 19.6297 12.4243 18.8752 13.9643C18.8101 14.128 18.7229 14.2822 18.6188 14.4217C18.6178 14.4238 18.6167 14.4259 18.6146 14.4269C18.2426 14.9234 17.6499 15.2455 16.9837 15.2455C15.8824 15.2455 14.984 14.3678 14.944 13.2693V13.2471C14.943 13.2302 14.943 13.2123 14.943 13.1943C14.943 13.1172 14.9472 13.0401 14.9566 12.9651C14.9556 12.963 14.9566 12.962 14.9566 12.9598V12.9535C14.9882 12.456 15.0722 11.9321 15.2141 11.403C15.4737 10.4355 15.8877 9.58627 16.3837 8.92824C16.3847 8.92824 16.3858 8.92719 16.3847 8.92613C16.432 8.86276 16.4814 8.80044 16.5297 8.74129C16.535 8.73601 16.5382 8.73179 16.5403 8.7265C16.8313 8.31458 17.0005 7.81182 17.0005 7.26892C17.0005 5.87154 15.873 4.73821 14.4817 4.73821C13.2921 4.73821 12.2949 5.56735 12.0321 6.68272C12.0132 6.81157 11.9933 6.93938 11.9722 7.06824C11.9712 7.06824 11.9712 7.07035 11.9722 7.0714C11.9712 7.07246 11.9712 7.07352 11.9712 7.07563C11.7947 8.14981 11.5393 9.25039 11.203 10.3658C10.8163 11.6533 10.3235 12.9598 9.72134 14.259C8.42986 17.0485 6.7958 19.4714 5.00516 21.398C4.64682 21.7835 4.28323 22.149 3.91334 22.4922C1.47013 25.1877 0 28.6521 0 32.4302C0 37.6712 2.82782 42.307 7.16254 45.1292C7.16674 45.1324 7.172 45.1355 7.17725 45.1387C7.26237 45.1936 7.34749 45.2485 7.43366 45.3024C7.44522 45.3098 7.45573 45.3161 7.46728 45.3235C7.54715 45.3732 7.62701 45.4218 7.70793 45.4703C7.72369 45.4799 7.73945 45.4894 7.75522 45.4989C7.83193 45.5443 7.90969 45.5897 7.98745 45.6341C8.00637 45.6446 8.02423 45.6552 8.04315 45.6658C8.11881 45.7091 8.19552 45.7513 8.27223 45.7936C8.2922 45.8041 8.31216 45.8157 8.33213 45.8263C8.40884 45.8685 8.4866 45.9097 8.56436 45.9499C8.58328 45.9604 8.60325 45.9699 8.62216 45.9805C8.70308 46.0228 8.78504 46.0639 8.86596 46.1051C8.88172 46.1136 8.89748 46.121 8.9143 46.1294C9.00887 46.1759 9.1045 46.2224 9.20012 46.2678C9.20328 46.2689 9.20643 46.271 9.20958 46.272C9.30941 46.3185 9.40924 46.365 9.50907 46.4104C9.53324 46.4209 9.55741 46.4315 9.58158 46.4421C9.65514 46.4748 9.72765 46.5065 9.80121 46.5382C9.84639 46.5572 9.89263 46.5762 9.93782 46.5952C9.99036 46.6174 10.0439 46.6396 10.0975 46.6618C10.1511 46.6839 10.2047 46.704 10.2573 46.7262C10.3025 46.7442 10.3487 46.7621 10.3939 46.7801C10.4527 46.8022 10.5116 46.8244 10.5704 46.8466C10.5956 46.8561 10.6219 46.8667 10.6471 46.8762C10.6566 46.8793 10.666 46.8825 10.6755 46.8867C10.8342 46.9448 10.9929 47.0008 11.1536 47.0547C11.1883 47.0663 11.223 47.0769 11.2566 47.0885C11.4079 47.1381 11.5603 47.1867 11.7127 47.2321C11.7295 47.2374 11.7463 47.2427 11.7631 47.248C11.926 47.2966 12.0899 47.342 12.2549 47.3853C12.2833 47.3927 12.3117 47.4001 12.34 47.4075C12.5124 47.4518 12.6858 47.4951 12.8602 47.5342C12.8665 47.5353 12.8718 47.5374 12.8781 47.5384C12.8928 47.5416 12.9085 47.5448 12.9233 47.5479C13.0168 47.5691 13.1103 47.5891 13.2049 47.6092C13.2354 47.6155 13.2658 47.6219 13.2974 47.6282C13.3835 47.6462 13.4707 47.6631 13.558 47.6789C13.5958 47.6863 13.6326 47.6926 13.6704 47.7C13.7513 47.7148 13.8322 47.7286 13.9132 47.7423C13.9562 47.7497 13.9983 47.7571 14.0414 47.7634C14.1181 47.7761 14.1958 47.7877 14.2725 47.7993C14.3177 47.8057 14.364 47.813 14.4091 47.8194C14.4859 47.8299 14.5636 47.8405 14.6403 47.85C14.6855 47.8553 14.7307 47.8616 14.7759 47.8669C14.86 47.8775 14.944 47.8859 15.0281 47.8954C15.0649 47.8997 15.1027 47.9039 15.1395 47.9071C15.2488 47.9176 15.3591 47.9282 15.4684 47.9366C15.4789 47.9366 15.4905 47.9387 15.501 47.9398C15.9949 47.9789 16.494 48 16.9984 48C17.5028 48 17.9999 47.9799 18.4917 47.9409C18.5137 47.9387 18.5358 47.9366 18.5579 47.9356C18.6567 47.9271 18.7544 47.9187 18.8521 47.9092C18.8983 47.9049 18.9435 47.8997 18.9887 47.8944C19.0644 47.8859 19.14 47.8785 19.2157 47.869C19.2672 47.8627 19.3187 47.8564 19.3702 47.849C19.4406 47.8395 19.512 47.831 19.5824 47.8204C19.6329 47.813 19.6833 47.8057 19.7348 47.7983C19.8073 47.7877 19.8798 47.7761 19.9523 47.7645C19.9986 47.7571 20.0448 47.7497 20.0911 47.7412C20.1688 47.7286 20.2476 47.7148 20.3254 47.7C20.3643 47.6926 20.4042 47.6852 20.4431 47.6779C20.5293 47.662 20.6144 47.6451 20.6995 47.6272C20.731 47.6208 20.7625 47.6145 20.7941 47.6081C20.8876 47.5881 20.9811 47.568 21.0746 47.5469C21.0894 47.5437 21.1051 47.5405 21.1198 47.5374C21.1261 47.5363 21.1314 47.5342 21.1377 47.5331C21.3121 47.493 21.4855 47.4508 21.6579 47.4064C21.6862 47.399 21.7146 47.3916 21.743 47.3842C21.908 47.3409 22.0719 47.2955 22.2337 47.2469C22.2505 47.2416 22.2684 47.2364 22.2852 47.2311C22.4386 47.1857 22.59 47.1371 22.7413 47.0874C22.776 47.0758 22.8096 47.0652 22.8443 47.0536C23.005 46.9998 23.1648 46.9438 23.3234 46.8846C23.3329 46.8815 23.3424 46.8783 23.3518 46.8751C23.3781 46.8656 23.4033 46.8551 23.4296 46.8455C23.4874 46.8234 23.5462 46.8022 23.604 46.7801C23.6524 46.7611 23.7007 46.742 23.749 46.723H23.7501ZM21.1261 32.6299C23.5946 30.4055 27.0813 29.9428 28.915 31.5969C30.7487 33.2509 30.2359 36.3953 27.7685 38.6186C25.3011 40.843 21.8144 41.3057 19.9797 39.6516C18.1449 37.9986 18.6588 34.8543 21.1251 32.6299H21.1261ZM5.08397 31.5969C6.91769 29.9428 10.4054 30.4065 12.8728 32.6299C15.3402 34.8543 15.853 37.9986 14.0182 39.6516C12.1845 41.3057 8.69677 40.843 6.22939 38.6186C3.76202 36.3942 3.2492 33.2509 5.08397 31.5969Z" fill="#FFD87B"/>
</svg>
