<svg width="125" height="48" viewBox="0 0 125 48" fill="none" xmlns="http://www.w3.org/2000/svg">
<path d="M11.6034 2.896C13.3954 2.896 14.9794 3.296 16.3554 4.096C17.7474 4.88 18.8194 5.976 19.5714 7.384C20.3394 8.792 20.7234 10.384 20.7234 12.16C20.7234 13.984 20.1474 15.672 18.9954 17.224C17.8594 18.76 16.4434 19.984 14.7474 20.896C13.0514 21.792 11.4354 22.24 9.89941 22.24C9.16341 22.24 8.43541 22.2 7.71541 22.12C6.51541 22.04 5.59541 22 4.95541 22H1.16341V20.656L3.41941 18.88V5.512L0.755406 4.696L1.54741 3.136H4.93141C6.40341 3.136 7.84341 3.088 9.25141 2.992C10.3394 2.928 11.1234 2.896 11.6034 2.896ZM10.5954 20.008C11.6034 20.008 12.5154 19.72 13.3314 19.144C14.1634 18.568 14.8114 17.768 15.2754 16.744C15.7554 15.72 15.9954 14.568 15.9954 13.288C15.9954 11.752 15.7634 10.368 15.2994 9.136C14.8514 7.888 14.1554 6.896 13.2114 6.16C12.2834 5.408 11.1314 5.032 9.75541 5.032C9.03541 5.032 8.37141 5.224 7.76341 5.608V19.552C8.57941 19.856 9.51541 20.008 10.5714 20.008H10.5954ZM37.4495 22H31.9775V19.912L29.2655 22.048C28.9455 22.176 28.5455 22.24 28.0655 22.24C26.5295 22.24 25.4175 21.864 24.7295 21.112C24.0575 20.36 23.7215 19.456 23.7215 18.4C23.7215 17.776 23.9135 17.168 24.2975 16.576C24.6815 15.968 25.2335 15.408 25.9535 14.896H31.9775V14.488C31.9775 13.608 31.7375 12.96 31.2575 12.544C30.7775 12.128 30.1375 11.92 29.3375 11.92C28.2175 11.92 26.7535 12.36 24.9455 13.24L24.2255 11.872L27.5615 9.184C28.3775 8.944 29.3295 8.824 30.4175 8.824C32.2095 8.824 33.5935 9.232 34.5695 10.048C35.5615 10.864 36.0575 12.048 36.0575 13.6V19.6L38.2175 20.44L37.4495 22ZM29.2895 19.024C30.1055 19.024 31.0015 18.688 31.9775 18.016V16.48H28.1135C27.9855 16.672 27.8895 16.856 27.8255 17.032C27.7775 17.192 27.7535 17.376 27.7535 17.584C27.7535 17.984 27.8895 18.32 28.1615 18.592C28.4495 18.864 28.8255 19 29.2895 19V19.024ZM47.9865 12.232C47.4105 12.232 46.8345 12.488 46.2585 13V19.48L49.9065 20.44L49.1385 22H40.0425V20.656L42.1785 18.856V13.408L40.0425 12.064V10.72L45.0345 8.608L45.9465 11.272L48.1305 9.016C48.4665 8.888 48.8585 8.824 49.3065 8.824C50.1385 8.824 50.8505 9.016 51.4425 9.4C52.0505 9.784 52.4745 10.312 52.7145 10.984L50.4105 13.864H48.8985C48.8825 13.288 48.8025 12.88 48.6585 12.64C48.5145 12.384 48.2905 12.256 47.9865 12.256V12.232ZM62.0825 20.44L61.2905 22H53.7065V20.656L55.8425 18.856V5.728L53.7065 4.312V2.968L58.4105 1.048H59.9225V19.72L62.0825 20.44ZM69.7385 21.976H64.7705L60.8585 15.544L65.0825 12.184L62.1545 10.6L62.9225 9.04H69.8585V10.384L64.8905 14.464L68.1305 19.504L70.5065 20.416L69.7385 21.976ZM79.3721 22H71.7881V20.656L73.9241 18.856V5.728L71.7881 4.312V2.968L76.4921 1.048H78.0041V19.72L80.1641 20.44L79.3721 22ZM89.6368 22H82.0528V20.656L84.1888 18.856V13.288L82.0528 11.872V10.528L86.7568 8.608H88.2688V19.72L90.4288 20.44L89.6368 22ZM86.2048 1.384C86.8928 1.384 87.4528 1.608 87.8848 2.056C88.3328 2.488 88.5568 3.032 88.5568 3.688C88.5568 4.152 88.3968 4.584 88.0768 4.984C87.7568 5.384 87.3568 5.704 86.8768 5.944C86.3968 6.184 85.9328 6.304 85.4848 6.304C84.8128 6.304 84.2528 6.088 83.8048 5.656C83.3728 5.208 83.1568 4.656 83.1568 4C83.1568 3.536 83.3168 3.104 83.6368 2.704C83.9568 2.304 84.3488 1.984 84.8128 1.744C85.2928 1.504 85.7568 1.384 86.2048 1.384ZM108.074 22H102.626V14.32C102.626 13.568 102.506 13.04 102.266 12.736C102.042 12.416 101.642 12.256 101.066 12.256C100.218 12.256 99.3777 12.528 98.5457 13.072V19.72L100.706 20.44L99.9137 22H92.3297V20.656L94.4657 18.856V13.408L92.3297 12.064V10.72L97.3217 8.608L98.2577 11.392L101.234 9.016C101.666 8.888 102.154 8.824 102.698 8.824C103.914 8.824 104.882 9.16 105.602 9.832C106.338 10.488 106.706 11.384 106.706 12.52V19.72L108.866 20.44L108.074 22ZM122.429 11.392C122.701 11.904 122.837 12.448 122.837 13.024C122.837 14 122.421 14.944 121.589 15.856C120.773 16.752 119.757 17.432 118.541 17.896C118.125 18.376 117.917 18.856 117.917 19.336C117.917 19.56 118.093 19.784 118.445 20.008C118.797 20.216 119.349 20.488 120.101 20.824C121.205 21.304 122.053 21.744 122.645 22.144C123.237 22.56 123.533 23.04 123.533 23.584C123.533 24.096 123.213 24.728 122.573 25.48C121.933 26.248 121.133 26.912 120.173 27.472C119.229 28.048 118.309 28.336 117.413 28.336C116.437 28.336 115.277 28.184 113.933 27.88C112.589 27.576 111.469 27.272 110.573 26.968V22.672H112.085C112.869 23.728 113.661 24.528 114.461 25.072C115.277 25.632 116.197 25.912 117.221 25.912C117.749 25.912 118.189 25.792 118.541 25.552C118.909 25.328 119.093 25.088 119.093 24.832C119.093 24.464 118.877 24.136 118.445 23.848C118.029 23.576 117.381 23.24 116.501 22.84C115.557 22.424 114.845 22.056 114.365 21.736C113.885 21.4 113.645 21.016 113.645 20.584C113.645 20.2 113.933 19.808 114.509 19.408C115.101 19.008 115.805 18.656 116.621 18.352C116.301 18.384 116.061 18.4 115.901 18.4C114.925 18.4 114.029 18.208 113.213 17.824C112.413 17.44 111.781 16.928 111.317 16.288C110.853 15.632 110.621 14.936 110.621 14.2C110.621 13.288 110.957 12.416 111.629 11.584C112.301 10.752 113.173 10.088 114.245 9.592C115.317 9.08 116.413 8.824 117.533 8.824C118.813 8.824 119.941 9.144 120.917 9.784H124.877L124.901 11.392H122.429ZM117.317 15.664C117.829 15.664 118.221 15.544 118.493 15.304C118.781 15.048 118.925 14.672 118.925 14.176C118.925 13.392 118.669 12.776 118.157 12.328C117.661 11.864 116.997 11.632 116.165 11.632C115.109 11.632 114.581 12.104 114.581 13.048C114.581 13.816 114.829 14.448 115.325 14.944C115.837 15.424 116.501 15.664 117.317 15.664Z" fill="#FFD87B"/>
<path d="M11.3189 26.88C10.8229 26.64 10.2149 26.416 9.49488 26.208C8.77488 26 8.05488 25.896 7.33488 25.896C6.21488 25.896 5.31888 26.176 4.64688 26.736C3.97488 27.296 3.63888 28 3.63888 28.848C3.63888 29.488 3.83088 30.024 4.21488 30.456C4.59888 30.872 5.10288 31.232 5.72688 31.536C6.35088 31.824 7.01488 32.104 7.71888 32.376C8.27888 32.584 8.83088 32.816 9.37488 33.072C9.93488 33.328 10.4389 33.64 10.8869 34.008C11.3349 34.376 11.6869 34.832 11.9429 35.376C12.2149 35.92 12.3509 36.592 12.3509 37.392C12.3509 38.336 12.1269 39.176 11.6789 39.912C11.2309 40.632 10.6069 41.192 9.80688 41.592C9.00688 41.992 8.07888 42.192 7.02288 42.192C6.17488 42.192 5.39888 42.088 4.69488 41.88C4.00688 41.672 3.39888 41.432 2.87088 41.16C2.35888 40.872 1.95088 40.632 1.64688 40.44L2.19888 39.48C2.55088 39.736 2.97488 39.992 3.47088 40.248C3.98288 40.504 4.53488 40.72 5.12688 40.896C5.71888 41.072 6.31088 41.16 6.90288 41.16C7.59088 41.16 8.25488 41.024 8.89488 40.752C9.55088 40.48 10.0869 40.072 10.5029 39.528C10.9349 38.968 11.1509 38.264 11.1509 37.416C11.1509 36.6 10.9509 35.944 10.5509 35.448C10.1509 34.936 9.63888 34.52 9.01488 34.2C8.39088 33.88 7.72688 33.592 7.02288 33.336C6.47888 33.128 5.93488 32.912 5.39088 32.688C4.84688 32.448 4.35088 32.168 3.90288 31.848C3.45488 31.512 3.09488 31.112 2.82288 30.648C2.56688 30.184 2.43888 29.624 2.43888 28.968C2.43888 28.152 2.64688 27.44 3.06288 26.832C3.47888 26.224 4.03888 25.752 4.74288 25.416C5.46288 25.064 6.27888 24.88 7.19088 24.864C7.99088 24.864 8.79888 24.968 9.61488 25.176C10.4469 25.384 11.1669 25.648 11.7749 25.968L11.3189 26.88ZM15.6218 24.96H26.7818V26.088H21.7658V42H20.5898V26.088H15.6218V24.96ZM29.3742 33.504C29.3742 32.304 29.5982 31.184 30.0462 30.144C30.4942 29.088 31.1182 28.16 31.9182 27.36C32.7182 26.544 33.6382 25.912 34.6782 25.464C35.7342 25 36.8622 24.768 38.0622 24.768C39.2622 24.768 40.3902 25 41.4462 25.464C42.5022 25.912 43.4302 26.544 44.2302 27.36C45.0302 28.16 45.6542 29.088 46.1022 30.144C46.5662 31.184 46.7982 32.304 46.7982 33.504C46.7982 34.704 46.5662 35.832 46.1022 36.888C45.6542 37.928 45.0302 38.848 44.2302 39.648C43.4302 40.448 42.5022 41.072 41.4462 41.52C40.3902 41.968 39.2622 42.192 38.0622 42.192C36.8622 42.192 35.7342 41.976 34.6782 41.544C33.6382 41.112 32.7182 40.504 31.9182 39.72C31.1182 38.936 30.4942 38.016 30.0462 36.96C29.5982 35.904 29.3742 34.752 29.3742 33.504ZM30.5742 33.528C30.5742 34.568 30.7662 35.544 31.1502 36.456C31.5342 37.368 32.0702 38.168 32.7582 38.856C33.4462 39.544 34.2382 40.088 35.1342 40.488C36.0462 40.872 37.0142 41.064 38.0382 41.064C39.0942 41.064 40.0782 40.872 40.9902 40.488C41.9022 40.088 42.7022 39.544 43.3902 38.856C44.0782 38.168 44.6142 37.368 44.9982 36.456C45.3982 35.544 45.5982 34.56 45.5982 33.504C45.5982 32.464 45.3982 31.488 44.9982 30.576C44.6142 29.648 44.0782 28.84 43.3902 28.152C42.7022 27.448 41.9022 26.896 40.9902 26.496C40.0782 26.096 39.1022 25.896 38.0622 25.896C37.0062 25.896 36.0222 26.104 35.1102 26.52C34.1982 26.92 33.3982 27.472 32.7102 28.176C32.0382 28.88 31.5102 29.696 31.1262 30.624C30.7582 31.536 30.5742 32.504 30.5742 33.528ZM55.5175 24.96C56.1575 24.96 56.7895 25.056 57.4135 25.248C58.0535 25.424 58.6295 25.712 59.1415 26.112C59.6695 26.496 60.0935 26.992 60.4135 27.6C60.7335 28.208 60.8935 28.936 60.8935 29.784C60.8935 30.424 60.7975 31.048 60.6055 31.656C60.4135 32.248 60.1015 32.784 59.6695 33.264C59.2375 33.744 58.6775 34.128 57.9895 34.416C57.3015 34.704 56.4535 34.848 55.4455 34.848H52.8055V42H51.6295V24.96H55.5175ZM55.3735 33.72C56.2215 33.72 56.9255 33.6 57.4855 33.36C58.0455 33.12 58.4855 32.808 58.8055 32.424C59.1255 32.04 59.3495 31.624 59.4775 31.176C59.6215 30.712 59.6935 30.264 59.6935 29.832C59.6935 29.32 59.5975 28.84 59.4055 28.392C59.2295 27.944 58.9655 27.552 58.6135 27.216C58.2615 26.864 57.8375 26.592 57.3415 26.4C56.8455 26.192 56.2935 26.088 55.6855 26.088H52.8055V33.72H55.3735ZM57.8215 34.248L62.5495 42H61.1815L56.4295 34.272L57.8215 34.248ZM67.297 24.96H77.809V26.088H68.473V32.856H76.873V33.984H68.473V40.872H78.145V42H67.297V24.96Z" fill="white"/>
</svg>
